# xmcd
#
# Track frame offsets:
#	150
#	11632
#	20874
#	31450
#	40249
#	53198
#	64477
#	74224
#	86282
#	98513
#	112481
#	123561
#	146612
#	155622
#	169218
#	181046
#	194435
#	205131
#
# Disc length: 2920 seconds
#
# Revision: 0
# Processed by: cddbd v1.5.1PL0 Copyright (c) Steve Scherf et al.
# Submitted via: EasyCDDAExtractor 8.0.1.1
#
DISCID=0f0b6612
DTITLE=Bobby Moore and The Rhythm Aces - Searching For My Love
DYEAR=1966
DGENRE=Soul
TTITLE0=Searching For My Love
TTITLE1=Try My Love Again
TTITLE2=Go Ahead And Burn
TTITLE3=Jenny Jenny
TTITLE4=Hey Mister Dee Jay
TTITLE5=Come Back Baby
TTITLE6=When I Get The Feeling
TTITLE7=I Will Never Trust Love Again
TTITLE8=How Can You Do It Baby
TTITLE9=Mister Starlight
TTITLE10=We've Got That
TTITLE11=Alone
TTITLE12=The Hamburger Song
TTITLE13=Follow Me
TTITLE14=I Wanna Be Your Man
TTITLE15=I Won't Cry
TTITLE16=Chained To Your Heart
TTITLE17=Reaching Out
EXTD=
EXTT0=
EXTT1=
EXTT2=
EXTT3=
EXTT4=
EXTT5=
EXTT6=
EXTT7=
EXTT8=
EXTT9=
EXTT10=
EXTT11=
EXTT12=
EXTT13=
EXTT14=
EXTT15=
EXTT16=
EXTT17=
PLAYORDER=
